<svg width="776" height="263" viewBox="0 0 776 263" fill="none" xmlns="http://www.w3.org/2000/svg">
<path d="M143.789 233.048H136.913L135.735 236.159H137.699V239.007H131.151V236.159H132.69L137.666 223.16H135.342V220.311H142.742L148.799 236.159H150.338V239.007H143.004V236.159H144.968L143.789 233.048ZM137.928 230.396H142.742L140.351 224.077L137.928 230.396Z" fill="white"/>
<path d="M162.506 236.159H167.45V239.007H153.96V236.159H158.904V223.16H153.96V220.311H167.45V223.16H162.506V236.159Z" fill="white"/>
<path d="M193.782 228.17H207.469V231.346H193.782V228.17Z" fill="white"/>
<path d="M243.591 233.048H236.715L235.536 236.159H237.501V239.007H230.952V236.159H232.491L237.468 223.16H235.143V220.311H242.543L248.601 236.159H250.14V239.007H242.805V236.159H244.77L243.591 233.048ZM237.73 230.396H242.543L240.153 224.077L237.73 230.396Z" fill="white"/>
<path d="M263.781 239.007V236.879C262.864 238.123 261.161 239.531 259.033 239.531C255.66 239.531 253.827 237.796 253.827 234.423V227.842H251.469V224.994H257.429V234.391C257.429 235.733 258.149 236.683 259.491 236.683C261.325 236.683 262.831 235.34 263.781 233.965V227.842H261.751V224.994H267.382V236.159H269.74V239.007H263.781Z" fill="white"/>
<path d="M279.583 227.842V233.376C279.583 235.275 280.434 236.683 282.595 236.683C284.298 236.683 286.066 236.061 287.277 235.537L288.259 238.156C286.524 238.975 284.69 239.531 282.595 239.531C277.847 239.531 275.981 237.305 275.981 233.572V227.842H271.79V224.994H275.981V220.311H279.583V224.994H286.524V227.842H279.583Z" fill="white"/>
<path d="M298.659 218.379H302.817V222.505H298.659V218.379ZM302.719 236.159H307.925V239.007H293.911V236.159H299.117V227.842H294.566V224.994H302.719V236.159Z" fill="white"/>
<path d="M324.578 225.452V224.47H327.427V228.693H324.775C324.251 227.875 322.679 227.122 319.831 227.122C317.31 227.122 316.786 228.071 316.786 228.759C316.786 229.479 317.31 229.938 320.617 230.134C325.593 230.429 328.082 231.968 328.082 234.816C328.082 237.73 325.528 239.531 320.813 239.531C318.325 239.531 316.229 239.04 315.279 238.156V239.531H312.431V234.849H315.083C315.705 236.126 317.899 236.879 320.813 236.879C323.498 236.879 324.349 235.831 324.349 235.046C324.349 234.129 323.76 233.605 319.667 233.31C314.887 232.95 313.053 231.346 313.053 228.824C313.053 226.5 315.64 224.47 319.798 224.47C322.09 224.47 323.629 224.863 324.578 225.452Z" fill="white"/>
<path d="M339.464 227.842V233.376C339.464 235.275 340.315 236.683 342.476 236.683C344.179 236.683 345.947 236.061 347.158 235.537L348.141 238.156C346.405 238.975 344.572 239.531 342.476 239.531C337.728 239.531 335.862 237.305 335.862 233.572V227.842H331.671V224.994H335.862V220.311H339.464V224.994H346.405V227.842H339.464Z" fill="white"/>
<path d="M358.54 218.379H362.698V222.505H358.54V218.379ZM362.6 236.159H367.806V239.007H353.792V236.159H358.998V227.842H354.447V224.994H362.6V236.159Z" fill="white"/>
<path d="M385.049 225.812V224.437H387.897V229.97H385.245C384.689 228.366 383.182 227.318 380.268 227.318C377.125 227.318 375.521 229.185 375.521 232.001C375.521 234.751 377.158 236.683 380.792 236.683C383.15 236.683 385.769 235.471 387.374 234.391L388.814 236.846C386.49 238.385 383.837 239.531 380.792 239.531C375.324 239.531 371.788 236.486 371.788 232.001C371.788 227.515 375.324 224.47 380.268 224.47C382.429 224.47 384.198 224.994 385.049 225.812Z" fill="white"/>
<path d="M421.99 236.159H426.934V239.007H413.444V236.159H418.388V223.16H413.444V220.311H426.934V223.16H421.99V236.159Z" fill="white"/>
<path d="M437.072 224.994V227.122C437.988 225.878 439.691 224.47 441.819 224.47C445.192 224.47 447.025 226.205 447.025 229.578V236.159H449.383V239.007H441.394V236.159H443.424V229.61C443.424 228.268 442.703 227.318 441.361 227.318C439.527 227.318 438.021 228.661 437.072 230.036V236.159H439.102V239.007H431.112V236.159H433.47V227.842H431.112V224.994H437.072Z" fill="white"/>
<path d="M459.226 227.842V233.376C459.226 235.275 460.077 236.683 462.238 236.683C463.941 236.683 465.709 236.061 466.92 235.537L467.903 238.156C466.167 238.975 464.334 239.531 462.238 239.531C457.49 239.531 455.624 237.305 455.624 233.572V227.842H451.433V224.994H455.624V220.311H459.226V224.994H466.167V227.842H459.226Z" fill="white"/>
<path d="M488.256 233.114H475.453C475.715 234.98 477.451 236.683 480.594 236.683C483.443 236.683 485.473 236.159 487.568 235.177L488.616 237.829C485.997 239.04 483.803 239.531 480.594 239.531C475.126 239.531 471.59 236.486 471.59 232.001C471.59 227.515 475.126 224.47 480.07 224.47C485.473 224.47 488.256 227.613 488.256 232.328V233.114ZM475.519 230.462H484.359C484.196 228.693 482.559 227.318 480.07 227.318C477.09 227.318 475.944 228.988 475.519 230.462Z" fill="white"/>
<path d="M502.322 236.159H508.216V239.007H492.827V236.159H498.721V221.228H493.482V218.379H502.322V236.159Z" fill="white"/>
<path d="M522.283 236.159H528.176V239.007H512.787V236.159H518.681V221.228H513.442V218.379H522.283V236.159Z" fill="white"/>
<path d="M538.183 218.379H542.341V222.505H538.183V218.379ZM542.243 236.159H547.449V239.007H533.435V236.159H538.641V227.842H534.09V224.994H542.243V236.159Z" fill="white"/>
<path d="M562.989 226.172V224.994H568.948V227.842H566.591V238.942C566.591 242.216 565.248 245.032 559.224 245.032C557.227 245.032 554.902 244.41 552.937 243.657L553.821 240.939C555.229 241.496 557.587 242.184 559.224 242.184C562.236 242.184 562.989 240.972 562.989 238.909V237.829C562.007 238.778 560.534 239.531 558.831 239.531C554.247 239.531 551.431 236.388 551.431 232.001C551.431 227.613 554.247 224.47 558.831 224.47C560.534 224.47 562.007 225.223 562.989 226.172ZM562.989 234.685V229.316C562.007 228.17 560.468 227.318 558.962 227.318C556.768 227.318 555.164 228.792 555.164 232.001C555.164 235.209 556.768 236.683 558.962 236.683C560.468 236.683 562.007 235.831 562.989 234.685Z" fill="white"/>
<path d="M588.057 233.114H575.255C575.517 234.98 577.252 236.683 580.396 236.683C583.244 236.683 585.274 236.159 587.37 235.177L588.418 237.829C585.798 239.04 583.604 239.531 580.396 239.531C574.928 239.531 571.391 236.486 571.391 232.001C571.391 227.515 574.928 224.47 579.872 224.47C585.274 224.47 588.057 227.613 588.057 232.328V233.114ZM575.32 230.462H584.161C583.997 228.693 582.36 227.318 579.872 227.318C576.892 227.318 575.746 228.988 575.32 230.462Z" fill="white"/>
<path d="M596.754 224.994V227.122C597.671 225.878 599.374 224.47 601.502 224.47C604.874 224.47 606.708 226.205 606.708 229.578V236.159H609.066V239.007H601.076V236.159H603.106V229.61C603.106 228.268 602.386 227.318 601.044 227.318C599.21 227.318 597.704 228.661 596.754 230.036V236.159H598.784V239.007H590.795V236.159H593.153V227.842H590.795V224.994H596.754Z" fill="white"/>
<path d="M624.573 225.812V224.437H627.422V229.97H624.769C624.213 228.366 622.707 227.318 619.792 227.318C616.649 227.318 615.045 229.185 615.045 232.001C615.045 234.751 616.682 236.683 620.316 236.683C622.674 236.683 625.293 235.471 626.898 234.391L628.338 236.846C626.014 238.385 623.361 239.531 620.316 239.531C614.848 239.531 611.312 236.486 611.312 232.001C611.312 227.515 614.848 224.47 619.792 224.47C621.953 224.47 623.722 224.994 624.573 225.812Z" fill="white"/>
<path d="M647.939 233.114H635.136C635.398 234.98 637.133 236.683 640.277 236.683C643.125 236.683 645.155 236.159 647.251 235.177L648.299 237.829C645.679 239.04 643.485 239.531 640.277 239.531C634.809 239.531 631.272 236.486 631.272 232.001C631.272 227.515 634.809 224.47 639.753 224.47C645.155 224.47 647.939 227.613 647.939 232.328V233.114ZM635.202 230.462H644.042C643.878 228.693 642.241 227.318 639.753 227.318C636.773 227.318 635.627 228.988 635.202 230.462Z" fill="white"/>
<path d="M32.7047 31.6211H71.2781C93.8577 31.6211 108.284 37.4403 114.556 49.0785C118.249 56.4656 120.096 65.8389 120.096 77.1984C119.887 79.2194 119.782 81.2753 119.782 83.366H141.212V90.5789H119.051V90.3698C119.399 86.049 119.573 83.7144 119.573 83.366H107.134V90.5789H119.051V115.981H94.3804V124.762H94.1713C75.1459 124.901 64.3788 124.971 61.87 124.971V138.142H56.6432V161.558H59.5702V181.211H36.1543V172.012H32.9138V164.276C32.9138 155.356 32.8441 140.825 32.7047 120.685H46.9215V113.054H32.7047V31.6211ZM61.87 57.0232V99.5689H70.7554V93.4014H88.4219C90.7913 91.241 91.9761 85.1779 91.9761 75.2122C91.9761 65.6647 89.8157 60.1941 85.4949 58.8003C83.892 57.6155 80.2333 57.0232 74.5187 57.0232H61.87ZM120.828 92.1469H121.559C122.396 92.8438 122.814 93.5059 122.814 94.1331L124.486 92.1469H125.532V92.5651C124.208 94.377 123.546 96.1193 123.546 97.7918H122.814C122.465 97.7918 122.222 96.8162 122.082 94.8648C121.803 94.8648 121.211 94.0286 120.305 92.356L120.828 92.1469ZM120.514 99.5689H125.009V100.823H123.546V104.796C123.546 105.144 123.371 105.318 123.023 105.318H122.5C122.222 105.318 122.082 105.144 122.082 104.796V100.823H120.514V99.5689Z" fill="white"/>
<path d="M196.73 31.4121C218.195 31.4121 232.307 38.9386 239.067 53.9916C242.9 61.3091 244.816 75.4213 244.816 96.3283V97.0601H233.736V102.078H244.816V156.122H237.499V175.67H222.969V181.211H172.164V175.67H165.892V156.122H152.825V140.86H160.666V132.916H152.825V140.86H134.323V132.916H148.33C148.191 120.65 148.121 111.277 148.121 104.796V92.0424C148.121 68.3478 152.129 52.4933 160.143 44.479C167.53 35.7677 179.726 31.4121 196.73 31.4121ZM178.437 83.0524H178.646L178.437 83.4705V97.0601H167.147V102.078H178.437C178.228 123.612 178.123 139.885 178.123 150.896V156.122H203.211V147.864H214.71V147.655C214.71 137.48 214.641 123.298 214.501 105.109C214.501 104.343 214.571 102.391 214.71 99.2553C214.71 79.533 213.56 67.4418 211.261 62.9817C208.891 58.6609 204.535 56.5005 198.194 56.5005H194.43C186.904 56.5005 182.235 59.8108 180.423 66.4313C179.586 69.7764 178.924 75.3168 178.437 83.0524ZM244.816 97.0601H262.796V102.078H244.816V97.0601ZM246.071 103.019H246.593C247.012 103.019 247.325 104.029 247.534 106.05C247.813 106.05 248.231 105.04 248.789 103.019H249.52C249.939 103.019 250.287 104.099 250.566 106.259H250.775L251.507 103.019H252.761V103.332C251.994 106.956 251.437 108.768 251.088 108.768H250.043C250.043 108.489 249.799 107.409 249.311 105.527H249.102C248.824 107.688 248.475 108.768 248.057 108.768H247.012C246.524 106.608 246.036 104.796 245.548 103.332L246.071 103.019ZM246.593 110.545H247.534C247.952 110.545 248.475 111.73 249.102 114.099H249.311C249.311 113.751 249.625 112.566 250.252 110.545H252.029V116.295H250.775V113.368H250.566C250.078 115.319 249.66 116.295 249.311 116.295H248.58C248.092 114.761 247.848 113.855 247.848 113.577H247.534C247.534 115.389 247.36 116.295 247.012 116.295H246.071V111.068C246.14 110.719 246.315 110.545 246.593 110.545ZM245.757 118.072H246.802C247.639 118.559 248.057 119.152 248.057 119.849C248.127 119.849 248.614 119.256 249.52 118.072H250.566V118.594L249.102 120.79C249.102 120.929 249.66 121.87 250.775 123.612V123.821H249.52L248.057 122.044C247.499 123.229 247.081 123.821 246.802 123.821H245.548C246.733 122.079 247.325 121.068 247.325 120.79C246.28 119.256 245.757 118.35 245.757 118.072ZM246.593 125.598H248.057C249.729 125.598 250.566 126.191 250.566 127.375V127.584L250.043 128.316C250.322 128.316 250.566 128.595 250.775 129.152V130.093C250.426 130.929 249.59 131.348 248.266 131.348H246.071V126.121C246.14 125.772 246.315 125.598 246.593 125.598ZM247.534 126.853V127.898H249.102V126.853H247.534ZM208.752 126.853H210.215V128.839H211.992V127.375C212.062 127.027 212.236 126.853 212.515 126.853H213.456V132.393H211.992V130.093H210.215V132.393H208.752V126.853ZM247.534 128.839V130.093H249.311V129.361C249.311 129.013 249.137 128.839 248.789 128.839H247.534ZM246.593 133.125H249.834C250.113 133.194 250.252 133.369 250.252 133.647V134.379H247.534V135.32H250.043V136.574H247.534V137.62H250.252V138.874H246.071V133.647C246.14 133.299 246.315 133.125 246.593 133.125ZM208.752 134.379H212.933V134.902C212.933 135.529 212.097 136.783 210.424 138.665C212.306 138.665 213.247 138.804 213.247 139.083V139.919H208.438V138.874C209.693 137.411 210.529 136.33 210.947 135.633H208.752V134.379ZM182.409 141.592C183.872 141.592 184.709 142.707 184.918 144.937C184.918 146.54 183.907 147.446 181.886 147.655C180.214 147.237 179.377 146.331 179.377 144.937C179.377 142.707 180.388 141.592 182.409 141.592ZM210.215 141.906H211.679C211.679 142.324 212.376 144.136 213.769 147.341H212.515C212.167 147.341 211.992 147.028 211.992 146.401H210.215C209.867 146.401 209.693 146.714 209.693 147.341H208.229V147.132C208.578 146.505 209.24 144.763 210.215 141.906ZM180.945 143.892V144.937C180.945 145.913 181.433 146.401 182.409 146.401C183.106 146.261 183.454 145.773 183.454 144.937V143.892C183.454 143.613 183.106 143.265 182.409 142.846H181.886C181.677 142.846 181.364 143.195 180.945 143.892ZM210.738 143.892L210.424 145.146H211.47C211.261 144.31 211.017 143.892 210.738 143.892ZM181.886 149.119C183.001 149.119 183.838 149.641 184.395 150.687V151.418H183.141C183.141 150.721 182.653 150.373 181.677 150.373L180.945 151.418V152.359C180.945 153.404 181.433 153.927 182.409 153.927C182.548 153.927 182.966 153.509 183.663 152.673H184.709C184.709 154.067 183.768 154.903 181.886 155.182C180.214 154.694 179.377 153.753 179.377 152.359C179.586 150.199 180.423 149.119 181.886 149.119Z" fill="white"/>
<path d="M269.392 31.5166H343.194V55.9778C343.194 56.3263 343.02 56.5005 342.671 56.5005H298.871V89.0109H338.176V89.2199C338.176 90.1956 338.002 95.4921 337.653 105.109C337.514 105.109 337.444 105.214 337.444 105.423H339.221V112.949H305.143V143.683H296.049V146.714H305.143V156.018H343.716V159.572H340.685V177.97H294.585V181.211H272.633V127.584H269.392V108.663H245.454V105.423H269.392V31.5166ZM269.601 105.423V108.663H281.936V105.423H269.601ZM307.443 148.491H309.22V151H309.429C309.429 150.512 310.196 149.676 311.729 148.491H313.506L310.997 151.209L313.715 155.286H311.938C310.614 153.404 309.882 152.464 309.743 152.464C309.394 152.533 309.22 152.708 309.22 152.986V155.286H307.443V148.491ZM316.224 148.491H319.778C320.893 148.491 321.66 149.153 322.078 150.477C322.078 150.687 321.729 151.279 321.032 152.255C321.52 152.255 321.869 153.265 322.078 155.286H320.823C320.475 155.286 320.196 154.45 319.987 152.777H318.001V155.286H316.224V148.491ZM327.618 148.491H328.559C330.092 148.491 331.033 149.502 331.381 151.523V152.464C331.381 153.021 331.137 153.614 330.65 154.241V154.554C331.137 154.554 331.381 154.694 331.381 154.972C331.381 155.251 331.137 155.53 330.65 155.809C330.371 155.809 330.092 155.53 329.813 154.972L328.559 155.286H327.618C325.946 155.286 325.005 154.032 324.796 151.523C325.283 149.502 326.224 148.491 327.618 148.491ZM326.573 151.523V152.255C326.573 153.439 327.165 154.032 328.35 154.032H328.559V153.718H328.141V153.509C328.141 153.23 328.385 152.986 328.873 152.777L329.604 153.195C329.604 153.126 329.674 152.638 329.813 151.732C329.744 150.408 329.082 149.746 327.827 149.746C326.991 149.955 326.573 150.547 326.573 151.523ZM318.001 149.955V151.523H319.778C320.126 151.523 320.301 151.349 320.301 151V150.477C320.301 150.129 320.126 149.955 319.778 149.955H318.001ZM342.253 161.036H343.716V161.349C343.716 164.346 343.473 165.844 342.985 165.844C342.497 165.844 342.253 164.764 342.253 162.604V161.036ZM342.253 166.053H343.716V167.621H342.253V166.053Z" fill="white"/>
<path d="M345.19 31.4121H432.999V56.3959H403.939V159.99H417.11V163.022H403.939V174.416H396.099V178.388H401.639V181.211H374.982C374.634 181.211 374.46 181.037 374.46 180.688V56.3959H345.19V31.4121ZM393.59 159.99V163.022H403.73V159.99H393.59Z" fill="white"/>
<path d="M442.836 157.586H463.534C463.812 157.656 463.952 157.795 463.952 158.004V180.793C463.952 181.071 463.812 181.211 463.534 181.211H443.254C442.975 181.211 442.836 181.071 442.836 180.793V157.586Z" fill="white"/>
<path d="M475.043 31.4121H562.852V56.3959H533.791V159.99H546.963V163.022H533.791V174.416H525.951V178.388H531.492V181.211H504.835C504.487 181.211 504.312 181.037 504.312 180.688V56.3959H475.043V31.4121ZM523.442 159.99V163.022H533.582V159.99H523.442Z" fill="white"/>
<path d="M559.831 31.5166H590.041V32.771C590.041 42.2489 591.783 49.4618 595.268 54.4098C604.328 70.4385 608.857 79.08 608.857 80.3345H609.171C609.171 79.5679 614.537 68.975 625.269 48.5558C626.594 43.3988 627.256 38.7992 627.256 34.7572V31.5166H655.689V31.7257C655.689 45.8031 653.18 56.3611 648.163 63.3998C647.048 65.5602 638.998 78.2438 624.015 101.451C627.151 106.468 628.719 109.151 628.719 109.5H619.416V113.786H631.333C632.169 114.622 637.535 123.264 647.431 139.71V158.527H652.449V170.13H641.368V173.684H652.449V179.434H618.684V139.71H614.921C610.251 129.745 607.917 124.448 607.917 123.821H607.603C606.279 127.306 603.84 132.602 600.286 139.71V160.304H590.041V181.002C584.884 181.141 581.086 181.211 578.647 181.211H559.308L556.799 181.002V156.541H563.594V135.111H580.947V131.348H572.897V116.817H583.769C584.257 116.26 587.254 111.556 592.759 102.705V102.182C576.452 77.7908 567.566 64.3755 566.103 61.9363C561.921 55.3854 559.831 45.4895 559.831 32.2484V31.5166ZM591.505 161.036H593.073C593.073 161.314 593.386 162.499 594.013 164.59H594.327C594.815 162.22 595.233 161.036 595.582 161.036H597.045V166.889H596.313C595.965 166.889 595.791 166.715 595.791 166.367V163.858H595.582C595.024 165.879 594.606 166.889 594.327 166.889H594.013C593.177 166.123 592.759 165.182 592.759 164.067H592.55C592.55 165.949 592.376 166.889 592.027 166.889H591.505C591.156 166.889 590.982 166.715 590.982 166.367V161.558C591.052 161.21 591.226 161.036 591.505 161.036ZM591.505 168.667H593.491C594.466 168.667 595.163 169.085 595.582 169.921V171.175C595.163 172.012 594.466 172.43 593.491 172.43H592.55V173.893C592.55 174.242 592.376 174.416 592.027 174.416H591.505C591.156 174.416 590.982 174.242 590.982 173.893V169.085C591.052 168.806 591.226 168.667 591.505 168.667ZM592.55 169.921V171.175H593.804C594.153 171.175 594.327 171.001 594.327 170.653V170.339C594.327 170.06 594.153 169.921 593.804 169.921H592.55Z" fill="white"/>
<path d="M656.535 31.4121H744.345V56.3959H715.284V159.99H728.456V163.022H715.284V174.416H707.444V178.388H712.984V181.211H686.328C685.979 181.211 685.805 181.037 685.805 180.688V56.3959H656.535V31.4121ZM704.935 159.99V163.022H715.075V159.99H704.935Z" fill="white"/>
<path d="M9.59755 6.54857H768.69V80.3063H766.692V174.731H768.69V255.603H9.59755V175.185H7.16391V80.7599H0.761353V175.185H3.04898V262.152H775.239V0H3.04898V80.746H9.59755V6.54857Z" fill="white"/>
</svg>
